# xmcd
#
# Track frame offsets:
#        150
#        12504
#        22454
#        32478
#        45169
#        62272
#        72072
#        83408
#        96305
#        109929
#        120589
#        133823
#        148461
#        159829
#        171556
#        182200
#        192808
#        207222
#        220219
#        231826
#        246593
#        259627
#        275153
#        285799
#        295406
#        308071
#        321447
#
# Disc length: 4440 seconds
#
# Revision: 0
# Processed by: cddbd v1.5.2PL0 Copyright (c) Steve Scherf et al.
# Submitted via: CDGFix 3.3f
#
DISCID=9611561b
DTITLE=Various Artist - JTG142
DYEAR=1900
DGENRE=Karaoke
TTITLE0=Pastsy Cline - A Poor Man's Roses
TTITLE1=Pastsy Cline - Back In Baby's Arms
TTITLE2=Pastsy Cline - Blue Moon Of Kentucky
TTITLE3=Pastsy Cline - Crazy
TTITLE4=Pastsy Cline - Faded Love
TTITLE5=Pastsy Cline - Foolin' 'Round
TTITLE6=Pastsy Cline - Half As Much
TTITLE7=Pastsy Cline - He Called Me Baby
TTITLE8=Pastsy Cline - I Fall To Pieces
TTITLE9=Pastsy Cline - I Love You So Much It Hurts
TTITLE10=Pastsy Cline - If I Could See The World (Through The Eyes Of A Child)
TTITLE11=Pastsy Cline - Imagine That
TTITLE12=Pastsy Cline - Leavin' On Your Mind
TTITLE13=Pastsy Cline - Love Letters In The Sand
TTITLE14=Pastsy Cline - San Antonio Rose
TTITLE15=Pastsy Cline - Seven Lonely Days
TTITLE16=Pastsy Cline - She's Got You
TTITLE17=Pastsy Cline - Someday (You'll Want Me To Want You)
TTITLE18=Pastsy Cline - South Of The Border
TTITLE19=Pastsy Cline - So Wrong
TTITLE20=Pastsy Cline - Sweet Dreams
TTITLE21=Pastsy Cline - The Wayward Wind
TTITLE22=Pastsy Cline - Three Cigarettes In An Ashtray
TTITLE23=Pastsy Cline - Walkin' After Midnight
TTITLE24=Pastsy Cline - When I Get Through With You
TTITLE25=Pastsy Cline - You Took Him Off My Hands
TTITLE26=Pastsy Cline - Your Cheatin' Heart
EXTD=
EXTT0=
EXTT1=
EXTT2=
EXTT3=
EXTT4=
EXTT5=
EXTT6=
EXTT7=
EXTT8=
EXTT9=
EXTT10=
EXTT11=
EXTT12=
EXTT13=
EXTT14=
EXTT15=
EXTT16=
EXTT17=
EXTT18=
EXTT19=
EXTT20=
EXTT21=
EXTT22=
EXTT23=
EXTT24=
EXTT25=
EXTT26=
PLAYORDER=
